<svg xmlns="http://www.w3.org/2000/svg" viewBox="0 0 130 100" shape-rendering="crispEdges"><rect x="-1" y="-1" width="12" height="12" fill="#05070E"/><rect x="9" y="-1" width="12" height="12" fill="#05070E"/><rect x="109" y="-1" width="12" height="12" fill="#05070E"/><rect x="119" y="-1" width="12" height="12" fill="#05070E"/><rect x="-1" y="9" width="12" height="12" fill="#05070E"/><rect x="9" y="9" width="12" height="12" fill="#05070E"/><rect x="19" y="9" width="12" height="12" fill="#05070E"/><rect x="99" y="9" width="12" height="12" fill="#05070E"/><rect x="109" y="9" width="12" height="12" fill="#05070E"/><rect x="119" y="9" width="12" height="12" fill="#05070E"/><rect x="-1" y="19" width="12" height="12" fill="#05070E"/><rect x="9" y="19" width="12" height="12" fill="#05070E"/><rect x="29" y="19" width="12" height="12" fill="#05070E"/><rect x="39" y="19" width="12" height="12" fill="#05070E"/><rect x="49" y="19" width="12" height="12" fill="#05070E"/><rect x="59" y="19" width="12" height="12" fill="#05070E"/><rect x="69" y="19" width="12" height="12" fill="#05070E"/><rect x="79" y="19" width="12" height="12" fill="#05070E"/><rect x="89" y="19" width="12" height="12" fill="#05070E"/><rect x="109" y="19" width="12" height="12" fill="#05070E"/><rect x="119" y="19" width="12" height="12" fill="#05070E"/><rect x="-1" y="29" width="12" height="12" fill="#05070E"/><rect x="9" y="29" width="12" height="12" fill="#05070E"/><rect x="39" y="29" width="12" height="12" fill="#05070E"/><rect x="49" y="29" width="12" height="12" fill="#05070E"/><rect x="59" y="29" width="12" height="12" fill="#05070E"/><rect x="69" y="29" width="12" height="12" fill="#05070E"/><rect x="79" y="29" width="12" height="12" fill="#05070E"/><rect x="109" y="29" width="12" height="12" fill="#05070E"/><rect x="119" y="29" width="12" height="12" fill="#05070E"/><rect x="-1" y="39" width="12" height="12" fill="#05070E"/><rect x="9" y="39" width="12" height="12" fill="#05070E"/><rect x="39" y="39" width="12" height="12" fill="#05070E"/><rect x="49" y="39" width="12" height="12" fill="#05070E"/><rect x="59" y="39" width="12" height="12" fill="#05070E"/><rect x="69" y="39" width="12" height="12" fill="#05070E"/><rect x="79" y="39" width="12" height="12" fill="#05070E"/><rect x="109" y="39" width="12" height="12" fill="#05070E"/><rect x="119" y="39" width="12" height="12" fill="#05070E"/><rect x="-1" y="49" width="12" height="12" fill="#05070E"/><rect x="9" y="49" width="12" height="12" fill="#05070E"/><rect x="49" y="49" width="12" height="12" fill="#05070E"/><rect x="59" y="49" width="12" height="12" fill="#05070E"/><rect x="69" y="49" width="12" height="12" fill="#05070E"/><rect x="109" y="49" width="12" height="12" fill="#05070E"/><rect x="119" y="49" width="12" height="12" fill="#05070E"/><rect x="-1" y="59" width="12" height="12" fill="#05070E"/><rect x="9" y="59" width="12" height="12" fill="#05070E"/><rect x="49" y="59" width="12" height="12" fill="#05070E"/><rect x="59" y="59" width="12" height="12" fill="#05070E"/><rect x="69" y="59" width="12" height="12" fill="#05070E"/><rect x="109" y="59" width="12" height="12" fill="#05070E"/><rect x="119" y="59" width="12" height="12" fill="#05070E"/><rect x="-1" y="69" width="12" height="12" fill="#05070E"/><rect x="9" y="69" width="12" height="12" fill="#05070E"/><rect x="59" y="69" width="12" height="12" fill="#05070E"/><rect x="109" y="69" width="12" height="12" fill="#05070E"/><rect x="119" y="69" width="12" height="12" fill="#05070E"/><rect x="-1" y="79" width="12" height="12" fill="#05070E"/><rect x="9" y="79" width="12" height="12" fill="#05070E"/><rect x="109" y="79" width="12" height="12" fill="#05070E"/><rect x="119" y="79" width="12" height="12" fill="#05070E"/><rect x="-1" y="89" width="12" height="12" fill="#05070E"/><rect x="9" y="89" width="12" height="12" fill="#05070E"/><rect x="109" y="89" width="12" height="12" fill="#05070E"/><rect x="119" y="89" width="12" height="12" fill="#05070E"/><rect x="0" y="0" width="10" height="10" fill="#7DE8F8"/><rect x="10" y="0" width="10" height="10" fill="#7DE8F8"/><rect x="110" y="0" width="10" height="10" fill="#7DE8F8"/><rect x="120" y="0" width="10" height="10" fill="#7DE8F8"/><rect x="0" y="10" width="10" height="10" fill="#7DE8F8"/><rect x="10" y="10" width="10" height="10" fill="#22D3EE"/><rect x="20" y="10" width="10" height="10" fill="#7DE8F8"/><rect x="100" y="10" width="10" height="10" fill="#7DE8F8"/><rect x="110" y="10" width="10" height="10" fill="#22D3EE"/><rect x="120" y="10" width="10" height="10" fill="#0E7490"/><rect x="0" y="20" width="10" height="10" fill="#7DE8F8"/><rect x="10" y="20" width="10" height="10" fill="#0E7490"/><rect x="30" y="20" width="10" height="10" fill="#C9B8FD"/><rect x="40" y="20" width="10" height="10" fill="#C9B8FD"/><rect x="50" y="20" width="10" height="10" fill="#C9B8FD"/><rect x="60" y="20" width="10" height="10" fill="#C9B8FD"/><rect x="70" y="20" width="10" height="10" fill="#C9B8FD"/><rect x="80" y="20" width="10" height="10" fill="#C9B8FD"/><rect x="90" y="20" width="10" height="10" fill="#C9B8FD"/><rect x="110" y="20" width="10" height="10" fill="#7DE8F8"/><rect x="120" y="20" width="10" height="10" fill="#0E7490"/><rect x="0" y="30" width="10" height="10" fill="#7DE8F8"/><rect x="10" y="30" width="10" height="10" fill="#0E7490"/><rect x="40" y="30" width="10" height="10" fill="#C9B8FD"/><rect x="50" y="30" width="10" height="10" fill="#A78BFA"/><rect x="60" y="30" width="10" height="10" fill="#A78BFA"/><rect x="70" y="30" width="10" height="10" fill="#A78BFA"/><rect x="80" y="30" width="10" height="10" fill="#6D28D9"/><rect x="110" y="30" width="10" height="10" fill="#7DE8F8"/><rect x="120" y="30" width="10" height="10" fill="#0E7490"/><rect x="0" y="40" width="10" height="10" fill="#7DE8F8"/><rect x="10" y="40" width="10" height="10" fill="#0E7490"/><rect x="40" y="40" width="10" height="10" fill="#C9B8FD"/><rect x="50" y="40" width="10" height="10" fill="#A78BFA"/><rect x="60" y="40" width="10" height="10" fill="#A78BFA"/><rect x="70" y="40" width="10" height="10" fill="#A78BFA"/><rect x="80" y="40" width="10" height="10" fill="#6D28D9"/><rect x="110" y="40" width="10" height="10" fill="#7DE8F8"/><rect x="120" y="40" width="10" height="10" fill="#0E7490"/><rect x="0" y="50" width="10" height="10" fill="#7DE8F8"/><rect x="10" y="50" width="10" height="10" fill="#0E7490"/><rect x="50" y="50" width="10" height="10" fill="#C9B8FD"/><rect x="60" y="50" width="10" height="10" fill="#A78BFA"/><rect x="70" y="50" width="10" height="10" fill="#6D28D9"/><rect x="110" y="50" width="10" height="10" fill="#7DE8F8"/><rect x="120" y="50" width="10" height="10" fill="#0E7490"/><rect x="0" y="60" width="10" height="10" fill="#7DE8F8"/><rect x="10" y="60" width="10" height="10" fill="#0E7490"/><rect x="50" y="60" width="10" height="10" fill="#C9B8FD"/><rect x="60" y="60" width="10" height="10" fill="#A78BFA"/><rect x="70" y="60" width="10" height="10" fill="#6D28D9"/><rect x="110" y="60" width="10" height="10" fill="#7DE8F8"/><rect x="120" y="60" width="10" height="10" fill="#0E7490"/><rect x="0" y="70" width="10" height="10" fill="#7DE8F8"/><rect x="10" y="70" width="10" height="10" fill="#0E7490"/><rect x="60" y="70" width="10" height="10" fill="#C9B8FD"/><rect x="110" y="70" width="10" height="10" fill="#7DE8F8"/><rect x="120" y="70" width="10" height="10" fill="#0E7490"/><rect x="0" y="80" width="10" height="10" fill="#7DE8F8"/><rect x="10" y="80" width="10" height="10" fill="#0E7490"/><rect x="110" y="80" width="10" height="10" fill="#7DE8F8"/><rect x="120" y="80" width="10" height="10" fill="#0E7490"/><rect x="0" y="90" width="10" height="10" fill="#7DE8F8"/><rect x="10" y="90" width="10" height="10" fill="#0E7490"/><rect x="110" y="90" width="10" height="10" fill="#7DE8F8"/><rect x="120" y="90" width="10" height="10" fill="#0E7490"/></svg>